<?xml version="1.0" encoding="UTF-8"?>
<svg width="56px" height="56px" viewBox="0 0 56 56" version="1.1" xmlns="http://www.w3.org/2000/svg" xmlns:xlink="http://www.w3.org/1999/xlink">
    <title>C8DC6D0B-0C4A-45E6-A5CF-1BF05EB6D077</title>
    <g id="2023" stroke="none" stroke-width="1" fill="none" fill-rule="evenodd">
        <g id="Ploan/Main/1/New1" transform="translate(-162.000000, -732.000000)">
            <g id="Group-3" transform="translate(55.000000, 712.000000)">
                <g id="Hilight/icon" transform="translate(87.000000, 0.000000)">
                    <g id="Icon/56px/Insurance/88_years_old" transform="translate(20.000000, 20.000000)">
                        <rect id="Rectangle" x="0" y="0" width="56" height="56"></rect>
                        <g id="Group" transform="translate(7.000000, 6.000000)">
                            <polygon id="Path-27" stroke="#6F5F5E" stroke-width="1.6" fill="#FFD400" points="21 29.6886161 18.9193609 36 15 32.2173163 19.6042003 29"></polygon>
                            <polygon id="Path-27" stroke="#6F5F5E" stroke-width="1.6" fill="#FFD400" transform="translate(12.000000, 32.500000) scale(-1, 1) translate(-12.000000, -32.500000) " points="15 29.6886161 12.9193609 36 9 32.2173163 13.6042003 29"></polygon>
                            <polygon id="Path" fill="#6F5F5E" fill-rule="nonzero" transform="translate(15.500000, 33.500000) scale(-1, 1) translate(-15.500000, -33.500000) " points="14.4061917 35 16.5949273 35 17 33.2766136 15.5005595 32 14 33.2729813"></polygon>
                            <polygon id="Path" fill="#6F5F5E" fill-rule="nonzero" transform="translate(15.500000, 40.000000) scale(-1, 1) translate(-15.500000, -40.000000) " points="15.0262169 35 14 43.0868519 15.5 45 17 43.0868519 15.9737831 35"></polygon>
                            <path d="M15.5,0 C22.4035594,0 28,5.82282965 28,13.005654 C28,18.5329576 24.6860341,23.254932 20.0126346,25.1379799 L20.1865822,25.1375484 L20.1865822,28.9671385 L15.5033872,32 L10.8201923,28.6715555 L10.8201923,25.1375484 L10.9873654,25.1379799 C6.31396587,23.254932 3,18.5329576 3,13.005654 C3,5.82282965 8.59644063,0 15.5,0 Z" id="Combined-Shape" stroke="#6F5F5E" stroke-width="1.6" fill="#FFFFFF" stroke-linejoin="round"></path>
                            <path d="M10,29 C5.11923674,31.8578255 2.33066364,33.5564267 1.63428072,34.0958036 C0.589706342,34.9048689 0.184838606,36 0.0616128685,36.6976846 C-0.0205376228,37.1628077 -0.0205376228,39.2635795 0.0616128685,43" id="Path-14" stroke="#6F5F5E" stroke-width="1.6" stroke-linecap="round" stroke-linejoin="round"></path>
                            <path d="M31,29 C26.1192367,31.8578255 23.3306636,33.5564267 22.6342807,34.0958036 C21.5897063,34.9048689 21.1848386,36 21.0616129,36.6976846 C20.9794624,37.1628077 20.9794624,39.2635795 21.0616129,43" id="Path-14" stroke="#6F5F5E" stroke-width="1.6" stroke-linecap="round" transform="translate(26.000000, 36.000000) scale(-1, 1) translate(-26.000000, -36.000000) "></path>
                        </g>
                        <g id="baht" transform="translate(19.000000, 12.000000)" stroke="#6F5F5E" stroke-width="1.6">
                            <path d="M5.5,1.8 C5.96944204,1.8 6.39444204,1.99027898 6.70208153,2.29791847 C7.00972102,2.60555796 7.2,3.03055796 7.2,3.5 C7.2,3.96944204 7.00972102,4.39444204 6.70208153,4.70208153 C6.39444204,5.00972102 5.96944204,5.2 5.5,5.2 L0.8,5.2 L0.8,1.8 L5.5,1.8 Z" id="Rectangle"></path>
                            <path d="M5.5,6.8 C5.96944204,6.8 6.39444204,6.99027898 6.70208153,7.29791847 C7.00972102,7.60555796 7.2,8.03055796 7.2,8.5 C7.2,8.96944204 7.00972102,9.39444204 6.70208153,9.70208153 C6.39444204,10.009721 5.96944204,10.2 5.5,10.2 L0.8,10.2 L0.8,6.8 Z" id="Rectangle"></path>
                            <line x1="3.5" y1="1" x2="3.5" y2="0" id="Path-30" stroke-linecap="round"></line>
                            <line x1="3.5" y1="11" x2="3.5" y2="12" id="Path-30" stroke-linecap="round"></line>
                        </g>
                        <path d="M38,19 C34.1340494,19 31,15.8659506 31,12 C31,8.13404945 34.1340494,5 38,5 C41.8659506,5 45,8.13404945 45,12 C44.9956706,15.8641276 41.8641276,18.9956706 38,19 Z" id="Path" fill="#FFD400" fill-rule="nonzero"></path>
                        <line x1="35" y1="9" x2="40.7193398" y2="14.5936707" id="Path-12" stroke="#FFFFFF" stroke-width="1.6" stroke-linecap="round" stroke-linejoin="round"></line>
                        <line x1="35" y1="9" x2="40.7193398" y2="14.5936707" id="Path-12" stroke="#FFFFFF" stroke-width="1.6" stroke-linecap="round" stroke-linejoin="round" transform="translate(37.859670, 11.796835) scale(-1, 1) translate(-37.859670, -11.796835) "></line>
                        <g id="money" transform="translate(26.000000, 29.000000)">
                            <g id="bag" transform="translate(7.000000, 0.000000)">
                                <path d="M13.8005456,10.5060346 C13.7496211,10.4366641 13.7059715,10.3649016 13.6623219,10.290747 L9.75568354,3.64792867 L10.1170052,3.64792867 L12.3601091,1.47591606 C12.6195817,1.22713928 12.694756,0.856366206 12.5516823,0.533434816 C12.4110336,0.210503425 12.0788118,0 11.7126402,0 L3.91876326,0 C3.53804183,0 3.20339497,0.220071763 3.06759624,0.559747744 C2.93422249,0.899423725 3.02879661,1.27498097 3.31494392,1.51658149 L5.8344953,3.64792867 L6.23219157,3.64792867 L2.23582904,10.4558008 C0.834192179,12.4627596 0,14.8907252 0,16.9479178 C0,20.440361 2.46620188,22 7.99757502,22 C13.5337981,22 16,20.440361 16,16.9479178 C16,14.9098619 15.1755077,12.5010329 13.8005456,10.5060346" id="Fill-850" fill="#FFFFFF"></path>
                                <path d="M13.8005456,10.5060346 C13.7496211,10.4366641 13.7059715,10.3649016 13.6623219,10.290747 L9.75568354,3.64792867 L10.1170052,3.64792867 L12.3601091,1.47591606 C12.6195817,1.22713928 12.694756,0.856366206 12.5516823,0.533434816 C12.4110336,0.210503425 12.0788118,0 11.7126402,0 L3.91876326,0 C3.53804183,0 3.20339497,0.220071763 3.06759624,0.559747744 C2.93422249,0.899423725 3.02879661,1.27498097 3.31494392,1.51658149 L5.8344953,3.64792867 L6.23219157,3.64792867 L2.23582904,10.4558008 C0.834192179,12.4627596 0,14.8907252 0,16.9479178 C0,20.440361 2.46620188,22 7.99757502,22 C13.5337981,22 16,20.440361 16,16.9479178 C16,14.9098619 15.1755077,12.5010329 13.8005456,10.5060346 Z" id="Stroke-852" stroke="#6F5F5E" stroke-width="1.6" fill="#FFD400" stroke-linecap="round" stroke-linejoin="round"></path>
                                <path d="M13.8181818,3.44051854 L4.90510949,3.44051854 C4.90510949,3.44051854 0,3.15072668 0,8.25" id="Stroke-854" stroke="#6F5F5E" stroke-width="1.6" stroke-linecap="round" stroke-linejoin="round"></path>
                                <line x1="5.09090909" y1="3.4375" x2="0" y2="3.4375" id="Stroke-856" stroke="#6F5F5E" stroke-width="1.6" stroke-linecap="round" stroke-linejoin="round"></line>
                                <line x1="12.3636364" y1="12.375" x2="12.5905455" y2="12.94425" id="Stroke-860" stroke="#6F5F5E" stroke-width="1.6" stroke-linecap="round" stroke-linejoin="round"></line>
                                <path d="M12.3636364,18.5625 C12.3723636,18.5574486 13.1272727,17.7795279 13.2167273,16.5242469 C13.2189091,16.496464 13.2189091,16.4636297 13.2210909,16.4333211 C13.2363636,16.0544636 13.1905455,15.6124633 13.0792727,15.125" id="Stroke-864" stroke="#6F5F5E" stroke-width="1.6" stroke-linecap="round" stroke-linejoin="round"></path>
                            </g>
                            <g id="b-baht" transform="translate(12.000000, 8.000000)" stroke="#6F5F5E" stroke-width="1.6">
                                <path d="M3.07692308,2.33846154 C3.38705221,2.33846154 3.66782144,2.4641662 3.87105839,2.66740315 C4.07429533,2.8706401 4.2,3.15140933 4.2,3.46153846 C4.2,3.77166759 4.07429533,4.05243682 3.87105839,4.25567377 C3.66782144,4.45891072 3.38705221,4.58461538 3.07692308,4.58461538 L0.8,4.58461538 L0.8,2.33846154 Z" id="Rectangle"></path>
                                <path d="M3.07692308,5.41538462 C3.38705221,5.41538462 3.66782144,5.54108928 3.87105839,5.74432623 C4.07429533,5.94756318 4.2,6.22833241 4.2,6.53846154 C4.2,6.84859067 4.07429533,7.1293599 3.87105839,7.33259685 C3.66782144,7.5358338 3.38705221,7.66153846 3.07692308,7.66153846 L0.8,7.66153846 L0.8,5.41538462 Z" id="Rectangle"></path>
                                <line x1="2.16666667" y1="8.74514136e-14" x2="2.16666667" y2="1.53846154" id="Path-30" stroke-linecap="round"></line>
                                <line x1="2.16666667" y1="8.46153846" x2="2.16666667" y2="10" id="Path-30" stroke-linecap="round"></line>
                            </g>
                            <g id="coin" transform="translate(0.000000, 13.000000)">
                                <path d="M7.13298599,0.0135921799 C8.44627911,0.0135921799 9.51107433,0.403623414 9.51107433,0.884622893 L9.51107433,8.14256147 C9.51107433,8.62395137 8.44627911,9.01359218 7.13298599,9.01359218 C5.82014967,9.01359218 4.75535445,8.62395137 4.75535445,8.14256147 L4.75535445,0.884622893 C4.75535445,0.403623414 5.82014967,0.0135921799 7.13298599,0.0135921799" id="Fill-218" fill="#FFFFFF"></path>
                                <path d="M2.37767722,4.1683673 C3.69097034,4.1683673 4.75530877,4.60232249 4.75530877,5.13749046 L4.75530877,8.36761143 C4.75530877,8.9027794 3.69097034,9.33673459 2.37767722,9.33673459 C1.0643841,9.33673459 4.56797605e-05,8.9027794 4.56797605e-05,8.36761143 L4.56797605e-05,5.13749046 C4.56797605e-05,4.60232249 1.0643841,4.1683673 2.37767722,4.1683673" id="Fill-222" fill="#FFFFFF"></path>
                                <path d="M9.51112001,3.42105263 L9.51112001,5.03611311 C9.51112001,5.57128108 8.44632479,6.00523628 7.13303167,6.00523628 C5.82019535,6.00523628 4.75540013,5.57128108 4.75540013,5.03611311 L4.75540013,3.42105263" id="Stroke-226" stroke="#6F5F5E" stroke-width="1.3" stroke-linecap="round" stroke-linejoin="round"></path>
                                <path d="M9.51112001,1.42105263 L9.51112001,3.03611311 C9.51112001,3.57128108 8.44632479,4.00523628 7.13303167,4.00523628 C5.82019535,4.00523628 4.75540013,3.57128108 4.75540013,3.03611311 L4.75540013,1.42105263" id="Stroke-226-Copy" stroke="#6F5F5E" stroke-width="1.3" stroke-linecap="round" stroke-linejoin="round"></path>
                                <path d="M9.51112001,5.42105263 L9.51112001,7.03611311 C9.51112001,7.57128108 8.44632479,8.00523628 7.13303167,8.00523628 C5.82019535,8.00523628 4.75540013,7.57128108 4.75540013,7.03611311 L4.75540013,5.42105263" id="Stroke-228" stroke="#6F5F5E" stroke-width="1.3" stroke-linecap="round" stroke-linejoin="round"></path>
                                <path d="M9.51112001,6.42962573 L9.51112001,8.04468621 C9.51112001,8.57985418 8.44632479,9.01380937 7.13303167,9.01380937 C5.82019535,9.01380937 4.75540013,8.57985418 4.75540013,8.04468621 L4.75540013,6.42962573" id="Stroke-234" stroke="#6F5F5E" stroke-width="1.3" stroke-linecap="round" stroke-linejoin="round"></path>
                                <path d="M4.75530877,1.42105263 C4.75530877,0.868833896 5.82010399,0.421052632 7.13294031,0.421052632 C8.44623343,0.421052632 9.51102865,0.868833896 9.51102865,1.42105263 C9.51102865,1.97327137 8.44623343,2.42105263 7.13294031,2.42105263 C5.82010399,2.42105263 4.75530877,1.97327137 4.75530877,1.42105263 Z" id="Stroke-236" stroke="#6F5F5E" stroke-width="1.4" stroke-linecap="round" stroke-linejoin="round"></path>
                                <path d="M4.75530877,4.42105263 L4.75530877,6.03611311 C4.75530877,6.57128108 3.69097034,7.00523628 2.37767722,7.00523628 C1.0643841,7.00523628 4.56797605e-05,6.57128108 4.56797605e-05,6.03611311 L4.56797605e-05,4.42105263" id="Stroke-238" stroke="#6F5F5E" stroke-width="1.3" stroke-linecap="round" stroke-linejoin="round"></path>
                                <path d="M4.75530877,6.42105263 L4.75530877,8.03611311 C4.75530877,8.57128108 3.69097034,9.00523628 2.37767722,9.00523628 C1.0643841,9.00523628 4.56797605e-05,8.57128108 4.56797605e-05,8.03611311 L4.56797605e-05,6.42105263" id="Stroke-240" stroke="#6F5F5E" stroke-width="1.3" stroke-linecap="round" stroke-linejoin="round"></path>
                                <path d="M2.27373675e-13,4.3901758 C2.27373675e-13,3.85500783 1.06433842,3.42105263 2.37763154,3.42105263 C3.69092466,3.42105263 4.75526309,3.85500783 4.75526309,4.3901758 C4.75526309,4.92534377 3.69092466,5.35929897 2.37763154,5.35929897 C1.06433842,5.35929897 2.27373675e-13,4.92534377 2.27373675e-13,4.3901758 Z" id="Stroke-242" stroke="#6F5F5E" stroke-width="1.3" stroke-linecap="round" stroke-linejoin="round"></path>
                            </g>
                        </g>
                    </g>
                </g>
            </g>
        </g>
    </g>
</svg>