<?xml version="1.0" encoding="UTF-8"?>
<svg width="56px" height="56px" viewBox="0 0 56 56" version="1.1" xmlns="http://www.w3.org/2000/svg" xmlns:xlink="http://www.w3.org/1999/xlink">
    <title>F579230F-4A5C-4601-BF7F-342D1780D3B2</title>
    <g id="2023" stroke="none" stroke-width="1" fill="none" fill-rule="evenodd">
        <g id="Ploan/Main/1/New1" transform="translate(-462.000000, -732.000000)">
            <g id="Group-3" transform="translate(55.000000, 712.000000)">
                <g id="Hilight/with-icon-Copy-3" transform="translate(300.000000, 0.000000)">
                    <g id="Hilight/icon" transform="translate(87.000000, 0.000000)">
                        <g id="Icon/56px/Insurance/88_years_old" transform="translate(20.000000, 20.000000)">
                            <rect id="Rectangle" x="0" y="0" width="56" height="56"></rect>
                            <path d="M28.3559872,36.4488674 L28.3559872,31.0124811 L30.3372175,31.0124811 L30.3372175,36.2911917 C30.3372175,36.6888108 30.3760647,37.025868 30.4537604,37.3023732 C30.5314561,37.5788785 30.64,37.8028216 30.7793952,37.9742091 C30.9187904,38.1455967 31.08332,38.2689939 31.2729889,38.3444044 C31.4626578,38.4198149 31.6694624,38.4575196 31.8934088,38.4575196 C32.1173552,38.4575196 32.3241598,38.4198149 32.5138287,38.3444044 C32.7034976,38.2689939 32.8680272,38.1455967 33.0074224,37.9742091 C33.1468176,37.8028216 33.2553614,37.5788785 33.3330571,37.3023732 C33.4107528,37.025868 33.4496001,36.6888108 33.4496001,36.2911917 L33.4496001,31.0124811 L35.4308304,31.0124811 L35.4308304,36.4488674 C35.4308304,37.097855 35.3405676,37.6565701 35.1600394,38.1250294 C34.9795112,38.5934888 34.7304316,38.9796763 34.4127934,39.2836036 C34.0951551,39.5875308 33.7203932,39.8114739 33.2884966,39.9554395 C32.8565999,40.099405 32.3915753,40.1713867 31.8934088,40.1713867 C31.3952423,40.1713867 30.9302176,40.099405 30.498321,39.9554395 C30.0664243,39.8114739 29.6916625,39.5875308 29.3740242,39.2836036 C29.0563859,38.9796763 28.8073064,38.5934888 28.6267781,38.1250294 C28.4462499,37.6565701 28.3559872,37.097855 28.3559872,36.4488674 Z M36.4660061,32.2807427 C36.6488195,32.0750777 36.8487687,31.8854116 37.0658596,31.7117389 C37.2829505,31.5380661 37.5183192,31.3872473 37.7719728,31.259278 C38.0256264,31.1313086 38.2998424,31.0307627 38.594629,30.9576374 C38.8894156,30.884512 39.2059066,30.8479499 39.5441114,30.8479499 C40.5632961,30.8479499 41.3208177,31.1450172 41.8166991,31.7391607 C42.3125804,32.3333043 42.5605174,33.1810887 42.5605174,34.2825395 L42.5605174,40 L40.5861425,40 L40.5861425,34.2688285 C40.5861425,33.647263 40.482169,33.201662 40.2742187,32.9320122 C40.0662685,32.6623625 39.7383519,32.5275396 39.290459,32.5275396 C38.8745585,32.5275396 38.5146501,32.6132321 38.2107228,32.7846197 C37.9067955,32.9560072 37.6405775,33.1719523 37.4120607,33.4324614 L36.4660061,32.2807427 Z M44.3566501,40 L44.3566501,31.0124811 L46.2419039,31.0124811 L46.3104585,32.6166607 L46.3378804,32.6303716 C46.4247168,32.4521285 46.5503991,32.2590348 46.7149312,32.0510845 C46.8794632,31.8431343 47.0782698,31.6500405 47.3113569,31.4717975 C47.544444,31.2935544 47.8095194,31.1450208 48.1065912,31.026192 C48.403663,30.9073633 48.7304371,30.8479499 49.0869232,30.8479499 C49.4891127,30.8479499 49.8478786,30.9119336 50.1632317,31.039903 C50.4785848,31.1678724 50.7459454,31.3689641 50.9653215,31.6431842 C51.1846976,31.9174043 51.3526549,32.2693148 51.4691984,32.6989263 C51.585742,33.1285378 51.6440128,33.6426928 51.6440128,34.2414067 L51.6440128,40 L49.6627825,40 L49.6627825,34.2551176 C49.6627825,33.9443348 49.6422163,33.6815445 49.6010833,33.4667387 C49.5599503,33.251933 49.4971091,33.0771203 49.4125579,32.9422954 C49.3280067,32.8074705 49.2206055,32.7103524 49.0903509,32.650938 C48.9600964,32.5915237 48.8058499,32.5618169 48.6276068,32.5618169 C48.303113,32.5618169 48.0014754,32.6429392 47.722685,32.8051861 C47.4438946,32.9674329 47.2016704,33.1788078 46.9960054,33.4393169 C46.7903403,33.699826 46.6292384,33.9957507 46.5126949,34.3271 C46.3961513,34.6584493 46.3378804,34.9955065 46.3378804,35.3382816 L46.3378804,40 L44.3566501,40 Z" id="บาท" fill="#6F5F5E" fill-rule="nonzero"></path>
                            <path d="M27.6400399,21.1755471 C27.6400399,20.6453882 27.7291601,20.1837913 27.9074032,19.7907425 C28.0856462,19.3976937 28.3164447,19.0709196 28.5998055,18.8104105 C28.8831662,18.5499014 29.2042274,18.3556651 29.5629987,18.2276957 C29.92177,18.0997263 30.2816785,18.0357426 30.642735,18.0357426 C30.9443771,18.0357426 31.2140228,18.0620216 31.4516803,18.1145805 C31.6893377,18.1671393 31.9029976,18.2379785 32.0926665,18.3271 C32.2823354,18.4162215 32.4514353,18.5190525 32.5999712,18.6355961 C32.7485071,18.7521396 32.8867576,18.8743943 33.014727,19.0023636 L33.014727,18.1865629 C33.014727,17.6335524 32.8616231,17.2142304 32.5554106,16.9285845 C32.2491982,16.6429385 31.8355891,16.5001177 31.3145709,16.5001177 C31.0449211,16.5001177 30.7958416,16.522969 30.5673248,16.5686724 C30.3388081,16.6143758 30.1251481,16.6783595 29.9263386,16.7606255 C29.727529,16.8428915 29.5412906,16.9422948 29.3676179,17.0588384 C29.1939452,17.1753819 29.0294156,17.304492 28.8740242,17.4461723 L27.8799813,16.2670318 C28.0993574,16.0476557 28.3335835,15.8511343 28.5826668,15.6774615 C28.83175,15.5037888 29.1002532,15.3552551 29.3881843,15.2318561 C29.6761154,15.108457 29.9868935,15.013624 30.320528,14.9473542 C30.6541624,14.8810843 31.0152135,14.8479499 31.403692,14.8479499 C31.8972882,14.8479499 32.3600276,14.9199316 32.7919243,15.0638971 C33.223821,15.2078627 33.6008679,15.4192375 33.9230766,15.6980279 C34.2452852,15.9768184 34.5000775,16.3207309 34.6874613,16.7297759 C34.874845,17.1388209 34.9685355,17.6061306 34.9685355,18.1317192 L34.9685355,24 L33.014727,24 L33.014727,20.647676 C32.905039,20.4922846 32.7827844,20.3506064 32.6479595,20.222637 C32.5131346,20.0946676 32.3668861,19.9849812 32.2092095,19.8935745 C32.0515329,19.8021678 31.8870033,19.7313287 31.7156158,19.681055 C31.5442282,19.6307813 31.3694155,19.6056448 31.1911725,19.6056448 C30.6747246,19.6056448 30.2828243,19.73704 30.0154597,19.9998343 C29.7480951,20.2626285 29.6144148,20.6499586 29.6144148,21.1618361 C29.6144148,21.4132046 29.6429789,21.6291497 29.7001081,21.8096779 C29.7572373,21.9902061 29.8360744,22.1387398 29.9366218,22.2552833 C30.0371691,22.3718269 30.1548535,22.4575194 30.2896784,22.5123634 C30.4245033,22.5672074 30.5696092,22.594629 30.7250006,22.594629 C30.9443767,22.594629 31.1306151,22.5752054 31.2837213,22.5363575 C31.4368275,22.4975097 31.5842186,22.4323834 31.725899,22.3409767 L32.3291802,23.6229492 C32.0823821,23.796622 31.8173066,23.9314448 31.5339459,24.0274219 C31.2505851,24.1233989 30.9306665,24.1713867 30.5741803,24.1713867 C30.1125765,24.1713867 29.7001099,24.1039753 29.3367683,23.9691504 C28.9734267,23.8343255 28.6660762,23.6378041 28.4147078,23.3795801 C28.1633394,23.1213562 27.9713882,22.8071504 27.8388485,22.4369532 C27.7063088,22.0667561 27.6400399,21.6462916 27.6400399,21.1755471 Z M30.8689655,11.6053134 L30.8689655,10.6866806 L32.1303716,10.4124619 C32.3497477,10.4124619 32.5394138,10.4398835 32.6993755,10.4947275 C32.8593372,10.5495715 32.9895898,10.6249809 33.0901372,10.720958 C33.1906845,10.816935 33.2649514,10.9300491 33.3129399,11.0603036 C33.3609284,11.1905582 33.3849223,11.3288088 33.3849223,11.4750595 C33.3849223,11.5938882 33.3643561,11.7389941 33.3232231,11.9103817 C33.2820901,12.0817693 33.2226766,12.240586 33.1449809,12.3868368 L35.7706253,12.3868368 L35.7706253,12.4279696 L35.3044534,13.6688093 L30.9375201,13.6688093 L30.9375201,13.5522664 L31.6710552,12.6816219 C31.7533213,12.5856449 31.8127347,12.4862416 31.8492974,12.383409 C31.8858601,12.2805765 31.9041412,12.1834583 31.9041412,12.0920516 C31.9041412,11.9503712 31.8652939,11.8338294 31.7875982,11.7424227 C31.7099025,11.651016 31.6002161,11.6053134 31.4585357,11.6053134 L30.8689655,11.6053134 Z M36.0037112,16.2807427 C36.1865246,16.0750777 36.3864737,15.8854116 36.6035647,15.7117389 C36.8206556,15.5380661 37.0560243,15.3872473 37.3096779,15.259278 C37.5633315,15.1313086 37.8375475,15.0307627 38.1323341,14.9576374 C38.4271207,14.884512 38.7436116,14.8479499 39.0818164,14.8479499 C40.1010011,14.8479499 40.8585228,15.1450172 41.3544042,15.7391607 C41.8502855,16.3333043 42.0982225,17.1810887 42.0982225,18.2825395 L42.0982225,24 L40.1238476,24 L40.1238476,18.2688285 C40.1238476,17.647263 40.019874,17.201662 39.8119238,16.9320122 C39.6039736,16.6623625 39.2760569,16.5275396 38.8281641,16.5275396 C38.4122636,16.5275396 38.0523551,16.6132321 37.7484279,16.7846197 C37.4445006,16.9560072 37.1782826,17.1719523 36.9497658,17.4324614 L36.0037112,16.2807427 Z M43.8943552,20.867051 L43.8943552,15.0124811 L45.8755855,15.0124811 L45.8755855,20.661387 C45.8755855,21.0133028 45.9030071,21.3046572 45.9578511,21.5354592 C46.0126951,21.7662611 46.0961025,21.9502143 46.2080757,22.0873244 C46.3200489,22.2244344 46.4605846,22.32041 46.629687,22.375254 C46.7987894,22.430098 46.9953109,22.4575196 47.2192573,22.4575196 C47.4843367,22.4575196 47.7254183,22.3969636 47.9425092,22.2758497 C48.1596001,22.1547359 48.3458384,21.9879211 48.5012298,21.7754005 C48.6566212,21.56288 48.7765907,21.3103727 48.8611419,21.0178713 C48.9456931,20.7253699 48.9879681,20.4100215 48.9879681,20.0718167 L48.9879681,15.0124811 L50.9691984,15.0124811 L50.9691984,24 L49.0770892,24 L49.0222454,22.6768946 L48.9879681,22.6631837 C48.9011317,22.8414268 48.7868751,23.0196671 48.6451947,23.1979102 C48.5035143,23.3761533 48.335557,23.5372552 48.1413177,23.6812207 C47.9470785,23.8251863 47.7265632,23.9428706 47.4797651,24.0342773 C47.232967,24.125684 46.9610361,24.1713867 46.6639643,24.1713867 C46.2434935,24.1713867 45.8630188,24.1108307 45.5225289,23.9897168 C45.1820389,23.8686029 44.891827,23.6755092 44.6518844,23.4104297 C44.4119418,23.1453503 44.2257035,22.8037229 44.0931637,22.3855372 C43.960624,21.9673516 43.8943552,21.4611946 43.8943552,20.867051 Z" id="ล้าน" fill="#6F5F5E" fill-rule="nonzero"></path>
                            <path d="M6.12171941,16.3319158 C7.29735021,14.7955801 8.62993444,13.5965883 10.1195121,12.7349043 C11.6090898,11.8732204 13.3424512,11.4423849 15.3196485,11.4423849 C16.6956709,11.4423849 17.924721,11.6594726 19.0068357,12.0936544 C20.0889504,12.5278362 21.0073982,13.129002 21.7622066,13.8971699 C22.517015,14.6653377 23.0948021,15.5704263 23.4955854,16.6124627 C23.8963686,17.654499 24.0967572,18.7766752 24.0967572,19.9790249 C24.0967572,21.0878585 23.9731842,22.1031608 23.7260346,23.0249622 C23.4788849,23.9467636 23.1148456,24.8384929 22.6339057,25.7001769 C22.1529659,26.5618608 21.5551399,27.4268716 20.8404098,28.2952353 C20.1256797,29.1635989 19.294067,30.0853865 18.3455467,31.0606257 L12.8147658,36.8519144 L24.67789,36.8519144 L24.67789,41 L6.32211002,41 L6.32211002,37.5132034 L15.2795703,28.2751962 C16.0009801,27.5137081 16.618845,26.8090081 17.1331835,26.1610753 C17.647522,25.5131424 18.068338,24.8718988 18.3956443,24.2373254 C18.7229506,23.602752 18.963417,22.9548288 19.1170505,22.2935365 C19.2706841,21.6322442 19.3474997,20.9075054 19.3474997,20.1192984 C19.3474997,19.4379669 19.2573249,18.8167622 19.0769724,18.2556657 C18.89662,17.6945692 18.632775,17.2136365 18.2854295,16.8128533 C17.938084,16.41207 17.5005689,16.1014677 16.972871,15.8810369 C16.4451731,15.6606062 15.8406674,15.5503924 15.159336,15.5503924 C13.9035485,15.5503924 12.7746927,15.8710142 11.7727346,16.5122674 C10.7707766,17.1535205 9.86234822,17.9951527 9.04742233,19.0371891 L6.12171941,16.3319158 Z" id="2" fill="#6F5F5E" fill-rule="nonzero"></path>
                            <line x1="27" y1="27.5" x2="52" y2="27.5" id="Path-16" stroke="#FFD400" stroke-width="1.6" stroke-linecap="round" stroke-linejoin="round"></line>
                        </g>
                    </g>
                </g>
            </g>
        </g>
    </g>
</svg>